<svg xmlns="http://www.w3.org/2000/svg" x="0" y="0" data-name="Layer 1" viewBox="0 0 100 125"><title>2Artboard 53</title><path d="M82,20v4a2,2,0,0,1-2,2H20a2,2,0,0,1-2-2V20a2,2,0,0,1,2-2H80A2,2,0,0,1,82,20ZM80,32H52a2,2,0,0,0-2,2v4a2,2,0,0,0,2,2H80a2,2,0,0,0,2-2V34A2,2,0,0,0,80,32Zm0,14H52a2,2,0,0,0-2,2v4a2,2,0,0,0,2,2H80a2,2,0,0,0,2-2V48A2,2,0,0,0,80,46Zm0,14H52a2,2,0,0,0-2,2v4a2,2,0,0,0,2,2H80a2,2,0,0,0,2-2V62A2,2,0,0,0,80,60Zm0,14H20a2,2,0,0,0-2,2v4a2,2,0,0,0,2,2H80a2,2,0,0,0,2-2V76A2,2,0,0,0,80,74ZM21,68H41a3,3,0,0,0,3-3V61a13,13,0,0,0-8.57-12.21,9,9,0,1,0-8.86,0A13,13,0,0,0,18,61v4A3,3,0,0,0,21,68Z"/><text x="0" y="115" fill="#000" font-family="'Helvetica Neue', Helvetica, Arial-Unicode, Arial, Sans-serif" font-size="5" font-weight="bold">Created by Gregor Cresnar</text><text x="0" y="120" fill="#000" font-family="'Helvetica Neue', Helvetica, Arial-Unicode, Arial, Sans-serif" font-size="5" font-weight="bold">from the Noun Project</text></svg>