<?xml version="1.0" encoding="utf-8"?>
<!-- Generator: Adobe Illustrator 21.1.0, SVG Export Plug-In . SVG Version: 6.00 Build 0)  -->
<svg version="1.1"
	 id="Layer_1" xmlns:cc="http://creativecommons.org/ns#" xmlns:dc="http://purl.org/dc/elements/1.1/" xmlns:inkscape="http://www.inkscape.org/namespaces/inkscape" xmlns:rdf="http://www.w3.org/1999/02/22-rdf-syntax-ns#" xmlns:sodipodi="http://sodipodi.sourceforge.net/DTD/sodipodi-0.dtd" xmlns:svg="http://www.w3.org/2000/svg"
	 xmlns="http://www.w3.org/2000/svg" xmlns:xlink="http://www.w3.org/1999/xlink" x="0px" y="0px" viewBox="0 0 100 125"
	 style="enable-background:new 0 0 100 125;" xml:space="preserve">
<g transform="translate(0,-952.36218)">
	<path d="M20.1,993.4c-0.6,0-1,0.4-1,1c0,0.6,0.4,1,1,1c0,0,0,0,0,0h60c0.6,0,1-0.4,1-1c0-0.6-0.4-1-1-1c0,0,0,0,0,0
		C80.1,993.4,20.1,993.4,20.1,993.4z"/>
	<path d="M20.1,1002.5c-0.6,0-1,0.4-1,1c0,0.6,0.4,1,1,1c0,0,0,0,0,0h50.1c0.6,0,1-0.4,1-1c0-0.6-0.4-1-1-1c0,0,0,0,0,0H20.1z"/>
	<path d="M20.1,1012c-0.6,0-1,0.4-1,1s0.4,1,1,1c0,0,0,0,0,0h40.2c0.6,0,1-0.4,1-1c0-0.6-0.4-1-1-1c0,0,0,0,0,0H20.1z"/>
	<path d="M20.1,1021.9c-0.6,0-1,0.4-1,1c0,0.6,0.4,1,1,1c0,0,0,0,0,0h50.5c0.6,0,1-0.4,1-1c0-0.6-0.4-1-1-1c0,0,0,0,0,0
		C70.6,1021.9,20.1,1021.9,20.1,1021.9z"/>
	<path d="M8,977.9c-0.6,0-1,0.4-1,1v57.3c0,0.6,0.4,1,1,1h13.7l-2.5,13.5c-0.1,0.5,0.3,1.1,0.8,1.2c0.3,0.1,0.6,0,0.8-0.2l19.5-14.5
		H92c0.6,0,1-0.4,1-1v-57.3c0-0.6-0.4-1-1-1L8,977.9L8,977.9z M9,979.9h82v55.3H39.9c-0.2,0-0.4,0.1-0.6,0.2l-17.7,13.2l2.3-12.2
		c0.1-0.5-0.3-1.1-0.8-1.2c-0.1,0-0.1,0-0.2,0H9L9,979.9L9,979.9z"/>
</g>
</svg>
