<?xml version="1.0" encoding="utf-8"?>
<!-- Generator: Adobe Illustrator 21.1.0, SVG Export Plug-In . SVG Version: 6.00 Build 0)  -->
<svg version="1.1" id="Layer_1" xmlns="http://www.w3.org/2000/svg" xmlns:xlink="http://www.w3.org/1999/xlink" x="0px" y="0px"
	 viewBox="0 0 150 150" style="enable-background:new 0 0 150 150;" xml:space="preserve">
<style type="text/css">
	.st0{fill:#0D0106;}
</style>
<g>
	<circle class="st0" cx="75" cy="5.5" r="5.5"/>
	<circle class="st0" cx="75" cy="144.5" r="5.5"/>
	<ellipse transform="matrix(0.866 -0.5 0.5 0.866 -2.0209 22.0904)" class="st0" cx="40.2" cy="14.8" rx="5.5" ry="5.5"/>
	<ellipse transform="matrix(0.866 -0.5 0.5 0.866 -52.8821 73.0058)" class="st0" cx="109.8" cy="135.2" rx="5.5" ry="5.5"/>
	<ellipse transform="matrix(0.5 -0.866 0.866 0.5 -27.4408 32.8872)" class="st0" cx="14.8" cy="40.2" rx="5.5" ry="5.5"/>
	<ellipse transform="matrix(0.5 -0.866 0.866 0.5 -27.4694 172.0127)" class="st0" cx="135.2" cy="109.8" rx="5.5" ry="5.5"/>
	<circle class="st0" cx="144.5" cy="75" r="5.5"/>
	<circle class="st0" cx="5.5" cy="75" r="5.5"/>
	<ellipse transform="matrix(0.866 -0.5 0.5 0.866 -1.9938 72.9787)" class="st0" cx="135.2" cy="40.2" rx="5.5" ry="5.5"/>
	<ellipse transform="matrix(0.866 -0.5 0.5 0.866 -52.9092 22.1175)" class="st0" cx="14.8" cy="109.8" rx="5.5" ry="5.5"/>
	<ellipse transform="matrix(0.5 -0.866 0.866 0.5 42.1076 102.4642)" class="st0" cx="109.8" cy="14.8" rx="5.5" ry="5.5"/>
	<ellipse transform="matrix(0.5 -0.866 0.866 0.5 -97.0178 102.4356)" class="st0" cx="40.2" cy="135.2" rx="5.5" ry="5.5"/>
	<path class="st0" d="M132.2,65.1h-0.7H124c-0.4-2.1-1-4.1-1.6-6.1l6.5-3.8l0.6-0.3c2.5-1.4,3.3-4.6,1.9-7.1l-4.7-8.2
		c-1.4-2.5-4.6-3.3-7.1-1.9L119,38l-6.6,3.8c-1.4-1.6-2.9-3-4.4-4.4l3.8-6.6l0.3-0.6c1.4-2.5,0.6-5.6-1.9-7.1l-8.2-4.7
		c-2.5-1.4-5.6-0.6-7.1,1.9l-0.3,0.6l-3.8,6.5c-2-0.7-4-1.2-6.1-1.6v-7.6v-0.7c0-2.9-2.3-5.2-5.2-5.2h-9.4c-2.9,0-5.2,2.3-5.2,5.2
		v0.7V26c-2.1,0.4-4.1,1-6.1,1.6L55,21.1l-0.3-0.6c-1.4-2.5-4.6-3.3-7.1-1.9l-8.2,4.7c-2.5,1.4-3.3,4.6-1.9,7.1l0.3,0.6l3.8,6.6
		c-1.6,1.4-3,2.9-4.4,4.4L31,38.2l-0.6-0.3c-2.5-1.4-5.6-0.6-7.1,1.9L18.6,48c-1.4,2.5-0.6,5.6,1.9,7.1l0.6,0.3l6.5,3.8
		c-0.7,2-1.2,4-1.6,6.1h-7.6h-0.7c-2.9,0-5.2,2.3-5.2,5.2v9.4c0,2.9,2.3,5.2,5.2,5.2h0.7H26c0.4,2.1,1,4.1,1.6,6.1L21.1,95l-0.6,0.3
		c-2.5,1.4-3.3,4.6-1.9,7.1l4.7,8.2c1.4,2.5,4.6,3.3,7.1,1.9l0.6-0.3l6.6-3.8c1.4,1.6,2.9,3,4.4,4.4l-3.8,6.6l-0.3,0.6
		c-1.4,2.5-0.6,5.6,1.9,7.1l8.2,4.7c2.5,1.4,5.6,0.6,7.1-1.9l0.3-0.6l3.8-6.5c2,0.7,4,1.2,6.1,1.6v7.6v0.7c0,2.9,2.3,5.2,5.2,5.2
		h9.4c2.9,0,5.2-2.3,5.2-5.2V132v-8c2.1-0.4,4.1-1,6.1-1.6l3.8,6.5l0.3,0.6c1.4,2.5,4.6,3.3,7.1,1.9l8.2-4.7
		c2.5-1.4,3.3-4.6,1.9-7.1l-0.3-0.6l-3.8-6.6c1.6-1.4,3-2.9,4.4-4.4l6.6,3.8l0.6,0.3c2.5,1.4,5.6,0.6,7.1-1.9l4.7-8.2
		c1.4-2.5,0.6-5.6-1.9-7.1l-0.6-0.3l-6.5-3.8c0.7-2,1.2-4,1.6-6.1h7.6h0.7c2.9,0,5.2-2.3,5.2-5.2v-9.4
		C137.4,67.4,135.1,65.1,132.2,65.1z M75,44.9c5.7,0,10.4,4.6,10.4,10.4c0,5.7-4.6,10.4-10.4,10.4S64.6,61,64.6,55.3
		C64.6,49.5,69.3,44.9,75,44.9z M93.7,105.1h-6.2V83.4c0-0.6-0.5-1.1-1.1-1.1s-1.1,0.5-1.1,1.1v21.7H64.7V83.4
		c0-0.6-0.5-1.1-1.1-1.1s-1.1,0.5-1.1,1.1v21.7h-6.2V78.6c0-5.4,4.4-9.8,9.8-9.8h17.8c5.4,0,9.8,4.4,9.8,9.8V105.1z"/>
</g>
</svg>
