<svg xmlns="http://www.w3.org/2000/svg" xmlns:xlink="http://www.w3.org/1999/xlink" id="Layer_1" x="0" y="0" version="1.1" viewBox="0 0 97.2 81.4" xml:space="preserve" style="enable-background:new 0 0 97.2 81.4"><style type="text/css">.st0{fill:#efefef}</style><title>Artboard 29</title><path d="M82.3,28.4H39.6V15.9h42.7V28.4z M64.1,53.7h18.2V34.8H64.1V53.7z M58,34.8H39.6v6.4H58L58,34.8z M39.6,53.7H58	v-6.5H39.6V53.7z M82.3,59.8H39.6v6.4h42.6V59.8z M16.5,68.5c2,0,3.7-1.6,3.7-3.7V25.6h-7.3v39.2C12.8,66.9,14.5,68.5,16.5,68.5z M24.5,0h72.7v64.9c0,9.1-7.4,16.5-16.5,16.5H16.5C7.4,81.4,0,74,0,64.9V25.6h8.5v39.3c0,4.4,3.6,8,8,8s8-3.6,8-8V25.6l0,0L24.5,0z M30.9,72.9h49.8c4.4,0,8-3.6,8-8V8.5H33v25.6l0,0v30.8C33,67.7,32.3,70.4,30.9,72.9z" class="st0"/></svg>