<svg xmlns="http://www.w3.org/2000/svg" xmlns:xlink="http://www.w3.org/1999/xlink" id="Layer_1" x="0" y="0" version="1.1" viewBox="0 0 18 18" xml:space="preserve" style="enable-background:new 0 0 18 18"><style type="text/css">.st0{fill:#0d0106}</style><title>Info</title><desc>Created with Sketch.</desc><g><g><g><path d="M2,9c0,3.9,3.1,7,7,7c3.9,0,7-3.1,7-7c0-3.9-3.1-7-7-7C5.1,2,2,5.1,2,9z M0,9c0-5,4-9,9-9c5,0,9,4,9,9 c0,5-4,9-9,9C4,18,0,14,0,9z M8,8v5c0,0.6,0.4,1,1,1c0.6,0,1-0.4,1-1V8c0-0.6-0.4-1-1-1C8.4,7,8,7.4,8,8z M8,5c0,0.6,0.4,1,1,1 c0.6,0,1-0.4,1-1c0-0.6-0.4-1-1-1C8.4,4,8,4.4,8,5z" class="st0" transform="translate(-116.000000, -271.000000) translate(116.000000, 271.000000)"/></g></g></g></svg>