<svg xmlns="http://www.w3.org/2000/svg" xmlns:xlink="http://www.w3.org/1999/xlink" id="Layer_1" x="0" y="0" version="1.1" viewBox="0 0 83.2 71.6" xml:space="preserve" style="enable-background:new 0 0 83.2 71.6"><title>Artboard 29</title><path d="M75.2,0H8.5C4-0.2,0.2,3.4,0,7.9s3.4,8.4,7.9,8.5c0.2,0,0.4,0,0.6,0h66.7c4.5-0.2,8.1-4,7.9-8.5C83,3.6,79.6,0.2,75.2,0z M75.2,10.5H46.8c1.2-1.1,1.3-3,0.2-4.2C47,6.1,46.9,6.1,46.8,6h28.4c1.2,0.1,2.2,1.1,2.1,2.4C77.2,9.5,76.4,10.4,75.2,10.5z"/><path d="M75.2,55.1H8.5c-4.5,0.2-8.1,4-7.9,8.5c0.2,4.3,3.6,7.8,7.9,7.9h66.7c4.5-0.2,8.1-4,7.9-8.5C83,58.7,79.6,55.3,75.2,55.1z M75.2,65.6H61.8c1.2-1.1,1.3-3,0.2-4.2c-0.1-0.1-0.1-0.1-0.2-0.2h13.4c1.2,0.1,2.2,1.1,2.1,2.4C77.2,64.6,76.4,65.5,75.2,65.6z"/><path d="M75.2,27.6H8.5c-4.5,0.2-8.1,4-7.9,8.5c0.2,4.3,3.6,7.8,7.9,7.9h66.7c4.5-0.2,8.1-4,7.9-8.5C83,31.2,79.6,27.7,75.2,27.6z M75.2,38H29.8c1.2-1.1,1.3-3,0.2-4.2c-0.1-0.1-0.1-0.1-0.2-0.2h45.4c1.2,0.1,2.2,1.1,2.1,2.4C77.2,37.1,76.4,37.9,75.2,38z"/></svg>