<?xml version="1.0" encoding="utf-8"?>
<!-- Generator: Adobe Illustrator 21.1.0, SVG Export Plug-In . SVG Version: 6.00 Build 0)  -->
<svg version="1.1" id="Layer_1" xmlns="http://www.w3.org/2000/svg" xmlns:xlink="http://www.w3.org/1999/xlink" x="0px" y="0px"
	 viewBox="0 0 90 90" style="enable-background:new 0 0 90 90;" xml:space="preserve">
<style type="text/css">
	.st0{fill:#0D0106;}
</style>
<g>
	<path class="st0" d="M85,31h-1V5c0-2.8-2.2-5-5-5H11C8.2,0,6,2.2,6,5v26H5c-2.8,0-5,2.2-5,5v49c0,2.8,2.2,5,5,5h80c2.8,0,5-2.2,5-5
		V36C90,33.2,87.8,31,85,31z M9,5c0-1.1,0.9-2,2-2h68c1.1,0,2,0.9,2,2v34.6L45,69.1L9,39.6V5z M3,84.9V38.5l3,2.5V41l22.5,18.4
		L3,84.9z M5.1,87l25.7-25.7L45,73l14.2-11.7L84.9,87H5.1z M87,84.9L61.5,59.4L84,41v-0.1l3-2.5V84.9z"/>
	<path class="st0" d="M22.2,19.4H68c1.2,0,2.2-1,2.2-2.2c0-1.2-1-2.2-2.2-2.2H22.2c-1.2,0-2.2,1-2.2,2.2C20,18.4,21,19.4,22.2,19.4z
		"/>
	<path class="st0" d="M22.2,29.7H68c1.2,0,2.2-1,2.2-2.2c0-1.2-1-2.2-2.2-2.2H22.2c-1.2,0-2.2,1-2.2,2.2C20,28.7,21,29.7,22.2,29.7z
		"/>
	<path class="st0" d="M70.2,37.9c0-1.2-1-2.2-2.2-2.2H22.2c-1.2,0-2.2,1-2.2,2.2s1,2.2,2.2,2.2H68C69.2,40.1,70.2,39.1,70.2,37.9z"
		/>
</g>
</svg>
