<svg xmlns="http://www.w3.org/2000/svg" xmlns:xlink="http://www.w3.org/1999/xlink" id="Layer_1" x="0" y="0" version="1.1" viewBox="0 0 57.8 80" xml:space="preserve" style="enable-background:new 0 0 57.8 80"><style type="text/css">.st0{fill:#efefef}</style><path d="M28.9,0c-3.2,0-5.8,2.6-5.8,5.8v0.5h-5.7c-0.6,0-1,0.4-1,1v2H1c-0.6,0-1,0.4-1,1V79c0,0.6,0.4,1,1,1h55.8	c0.6,0,1-0.4,1-1V10.3c0-0.6-0.4-1-1-1H41.4v-2c0-0.6-0.4-1-1-1h-5.7V5.8C34.7,2.6,32.1,0,28.9,0z M55.8,78H2V11.3h5.7v59.1	c0,0.6,0.4,1,1,1h40.3c0.6,0,1-0.4,1-1V11.3h5.7V78z M48.1,11.3v58.1H9.7V11.3h6.6v2.9c0,0.6,0.4,1,1,1h23.1c0.6,0,1-0.4,1-1v-2.9	H48.1z M39.4,8.3v4.9H18.4V8.3h5.7c0.6,0,1-0.4,1-1V5.8c0-2.1,1.7-3.8,3.8-3.8s3.8,1.7,3.8,3.8v1.5c0,0.6,0.4,1,1,1L39.4,8.3	L39.4,8.3z" class="st0"/><path d="M14.6,43.3v19.5c0,0.6,0.4,1,1,1h26.5c0.6,0,1-0.4,1-1V43.3c0-0.6-0.4-1-1-1H15.6	C15.1,42.3,14.6,42.8,14.6,43.3z M41.1,55.4H24.2v-4.5h16.9V55.4z M22.2,55.4h-5.6v-4.5h5.6V55.4z M16.6,57.4h5.6v4.4h-5.6V57.4z M24.2,61.8v-4.4h16.9v4.4H24.2z M41.1,48.9H24.2v-4.6h16.9V48.9z M22.2,44.3v4.6h-5.6v-4.6H22.2z" class="st0"/><path d="M25.9,30.4h2v2c0,0.6,0.4,1,1,1s1-0.4,1-1v-2h2c0.6,0,1-0.4,1-1s-0.4-1-1-1h-2v-2c0-0.6-0.4-1-1-1s-1,0.4-1,1v2	h-2c-0.6,0-1,0.4-1,1S25.3,30.4,25.9,30.4z" class="st0"/><path d="M28.5,39.6c0.1,0.1,0.3,0.1,0.4,0.1s0.3,0,0.4-0.1c0.4-0.2,9.4-4,11.1-11.5c1-4.6-1.5-7.9-4.3-9	c-2.6-1-5.3-0.3-7.2,1.9c-1.9-2.2-4.6-3-7.2-1.9c-2.8,1.1-5.3,4.4-4.3,9C19.1,35.6,28.1,39.4,28.5,39.6z M22.4,21	c0.5-0.2,1-0.3,1.6-0.3c1.4,0,2.9,0.7,4,2.6c0.4,0.6,1.4,0.6,1.7,0c1.6-2.7,4-3,5.6-2.3c2,0.8,3.8,3.2,3.1,6.7	c-1.3,5.7-7.8,9.1-9.5,9.9c-1.7-0.8-8.3-4.2-9.5-9.9C18.6,24.2,20.4,21.8,22.4,21z" class="st0"/><path d="M28.9,4.7L28.9,4.7c-0.6,0-1,0.4-1,1c0,0.6,0.5,1,1,1s1-0.4,1-1S29.5,4.7,28.9,4.7z" class="st0"/></svg>