<svg xmlns="http://www.w3.org/2000/svg" xmlns:xlink="http://www.w3.org/1999/xlink" id="Layer_1" x="0" y="0" version="1.1" viewBox="0 0 49.4 88.6" xml:space="preserve" style="enable-background:new 0 0 49.4 88.6"><path d="M41.5,9.7c0.5,0.1,1,0.3,1.4,0.4c0.3,0.1,1.1,0.4,1.4-0.2c0.3-0.6-0.3-1.1-0.5-1.3C39,4.1,32.7,3.1,29.2,3	c0.5-0.2,1.2-0.3,1.8-0.5c0.3-0.1,1.1-0.2,1.1-0.9S31.3,0.7,31,0.7c-11.1-2.6-17.7,2.7-20.6,6c0.3-0.7,0.7-1.6,1.3-2.6	c0.5-0.9,0.2-1.3,0-1.5s-0.6-0.5-1.5,0C-1.1,8.6,0,24.5,0,25.1c0,1.3,0.1,2.7,0.3,4.1c0.2,1.3,0.5,2.5,0.9,3.7	C1.1,33.6,1,34.3,1,35.1c0,3.4,1.4,6.1,3.3,6.5c0.9,9.1,7.3,16.6,15.8,18.6v3.9c-1.2,0.3-2.4,0.8-3.5,1.4l0,0	C9.3,69.3,4.2,78.1,4.2,88c0,0.3,0.3,0.6,0.6,0.6h39.8c0.3,0,0.6-0.3,0.6-0.6c0-9.9-5-18.7-12.4-22.5l0,0c-1.1-0.6-2.3-1-3.5-1.4	v-3.9c8.5-2,14.9-9.6,15.8-18.6c1.9-0.4,3.3-3.1,3.3-6.5c0-0.8-0.1-1.5-0.2-2.2c0.4-1.1,0.7-2.4,0.9-3.7c0.5-3.1,0.4-5.9-0.3-8.1	C47.4,16.7,44.9,12.8,41.5,9.7z M32.8,66.9c6.5,3.7,11,11.6,11.2,20.5H5.4c0.2-9,4.7-16.9,11.2-20.5c1.2,3.5,4.4,5.8,8.1,5.8	C28.4,72.7,31.6,70.3,32.8,66.9z M44.7,40.5C44.4,40.4,44,40.7,44,41c-0.7,8.9-7,16.4-15.4,18.2c-0.3,0.1-0.5,0.3-0.5,0.6v4.9	c0,0.3,0.2,0.5,0.5,0.6c1.1,0.2,2.1,0.5,3.1,1c-0.9,3.1-3.8,5.2-7,5.2s-6-2.1-7-5.2c1-0.5,2.1-0.9,3.2-1.1c0.3-0.1,0.5-0.3,0.5-0.6	v-4.9c0-0.3-0.2-0.5-0.5-0.6c-8.4-1.8-14.7-9.2-15.4-18.2c0-0.3-0.3-0.5-0.7-0.5c-1.2,0-2.6-2.2-2.6-5.4c0-1.5,0.3-2.9,0.9-3.9	c0.5-0.9,1.1-1.4,1.7-1.4c0.2,0,0.5-0.1,0.6-0.4c0-0.1,4.4-10.5,11.5-13.4c2.2,2,4.9,3,7.9,3c2.9,0,5.7-1.1,7.9-3	c7.1,2.9,11.4,13.3,11.5,13.4c0.1,0.2,0.3,0.3,0.6,0.4c0.9,0,1.9,1.2,2.3,3.2l0,0c0.1,0.7,0.2,1.4,0.2,2.2	C47.2,38.3,45.8,40.5,44.7,40.5z M47.9,29c-0.1,0.6-0.2,1.2-0.4,1.8c-0.6-1.3-1.5-2.1-2.5-2.3c-0.8-1.9-5.3-11.1-12.3-13.8	c-0.2-0.1-0.5,0-0.6,0.1c-2,1.9-4.6,3-7.3,3s-5.3-1-7.3-3c-0.2-0.2-0.4-0.2-0.6-0.1C9.7,17.4,5.3,26.6,4.4,28.6	c-0.9,0.2-1.7,0.9-2.4,2c0,0.1-0.1,0.2-0.1,0.3c-0.1-0.6-0.3-1.2-0.4-1.8c-0.2-1.3-0.3-2.6-0.3-3.9c0-0.2-1-15.5,9.2-21.3	C8.9,6.6,8.3,8.5,8.5,9.5C8.6,9.7,8.8,9.9,9,10c0.2,0,0.5-0.1,0.6-0.3c0.2-0.4,6.1-10.7,20-8C28.3,2,26.9,2.5,26,3.3	c-0.2,0.2-0.3,0.4-0.2,0.7c0.1,0.2,0.4,0.4,0.6,0.4c0.1,0,8.9-0.9,15.5,4.3c-0.8-0.2-1.7-0.4-2.5-0.4c-0.2,0-0.5,0.2-0.6,0.4	s0,0.5,0.2,0.7c4,3.1,7,7.3,8.5,12.2C48.3,23.5,48.3,26.1,47.9,29z"/></svg>