<svg xmlns="http://www.w3.org/2000/svg" xmlns:xlink="http://www.w3.org/1999/xlink" id="Layer_1" x="0" y="0" version="1.1" viewBox="0 0 37.7 60" xml:space="preserve" style="enable-background:new 0 0 37.7 60"><style type="text/css">.st0{fill:#047829}</style><path d="M18.6,49.6c-2.8,0-5.9-0.4-9.1-1.6c-0.3-0.1-0.4-0.4-0.3-0.7s0.4-0.4,0.7-0.3c8.9,3.4,17.9,0,18,0c0.3-0.1,0.6,0,0.7,0.3	s0,0.6-0.3,0.7C28,48.1,24,49.6,18.6,49.6z"/><path d="M18.6,52.8c-2.8,0-5.9-0.4-9.1-1.6c-0.3-0.1-0.4-0.4-0.3-0.7s0.4-0.4,0.7-0.3c8.9,3.4,17.9,0,18,0c0.3-0.1,0.6,0,0.7,0.3	s0,0.6-0.3,0.7C28,51.3,24,52.8,18.6,52.8z"/><path d="M18.6,56c-2.8,0-5.9-0.4-9.1-1.6c-0.3-0.1-0.4-0.4-0.3-0.7s0.4-0.4,0.7-0.3c8.9,3.4,17.9,0,18,0c0.3-0.1,0.6,0,0.7,0.3	s0,0.6-0.3,0.7C28,54.5,24,56,18.6,56z"/><path d="M18.8,60c-0.6,0-1.3-0.1-2-0.4c-0.3-0.1-0.4-0.4-0.3-0.7s0.4-0.4,0.7-0.3c1.6,0.6,3.3,0,3.3,0c0.3-0.1,0.6,0,0.7,0.3	s0,0.6-0.3,0.7C20.9,59.7,20,60,18.8,60z"/><path d="M18.6,46.4c-2.8,0-5.9-0.4-9.1-1.6c-0.2-0.1-0.3-0.3-0.3-0.5V39c0-2.3-0.9-4.3-2.5-5.7c-4.7-4-7.1-9.8-6.6-15.9	C0.8,8.5,7.9,1.1,16.7,0.1c2.8-0.3,5.8,0,8.5,1c6.7,2.4,11.6,8.5,12.4,15.6l0,0c0.7,6.3-1.7,12.4-6.4,16.5c-1.7,1.4-2.6,3.5-2.6,5.8	v5.3c0,0.2-0.1,0.4-0.3,0.5C28,44.9,24,46.4,18.6,46.4z M10.2,43.9c7.8,2.9,15.7,0.6,17.3,0V39c0-2.5,1.1-4.9,3-6.6	c4.5-3.9,6.8-9.7,6.1-15.6l0,0c-0.7-6.7-5.3-12.5-11.7-14.7c-1.9-0.7-3.9-1-6-1c-0.7,0-1.4,0-2,0.1C8.6,2.1,1.8,9.1,1.1,17.5	c-0.4,5.8,1.8,11.3,6.2,15c1.8,1.6,2.9,3.9,2.9,6.5V43.9z M28.1,44.3L28.1,44.3L28.1,44.3z"/><path d="M20.3,20.9c0.2-0.2-4.9,2.4-8,10.6c0,0-5.4-9.8,4.3-16.6c7-4.9,12-5.9,11.4-7.2c-0.2-0.5,7,11.2-0.4,17.8	c-7.5,6.6-13.1,8-13.9,13C13.5,38.9,10.8,30.9,20.3,20.9z" class="st0"/><g id="n9kX8a.tif"><image style="overflow:visible" id="Layer_0_1_" width="1024" height="1024" transform="matrix(5.153631e-02 0 0 5.153631e-02 -52.7732 -3.2872)" xlink:href="358045310D9201A0.png"/></g></svg>