<?xml version="1.0" encoding="utf-8"?>
<!-- Generator: Adobe Illustrator 21.1.0, SVG Export Plug-In . SVG Version: 6.00 Build 0)  -->
<svg version="1.1" id="Layer_1" xmlns="http://www.w3.org/2000/svg" xmlns:xlink="http://www.w3.org/1999/xlink" x="0px" y="0px"
	 viewBox="0 0 97.2 81.4" style="enable-background:new 0 0 97.2 81.4;" xml:space="preserve">
<style type="text/css">
	.st0{fill:#0D0106;}
</style>
<title>Artboard 29</title>
<path class="st0" d="M82.3,28.4H39.6V15.9h42.7V28.4z M64.1,53.7h18.2V34.8H64.1V53.7z M58,34.8H39.6v6.4H58V34.8z M39.6,53.7H58
	v-6.5H39.6V53.7z M82.3,59.8H39.6v6.4h42.6v-6.4H82.3z M16.5,68.5c2,0,3.7-1.6,3.7-3.7V25.6h-7.3v39.2
	C12.8,66.9,14.5,68.5,16.5,68.5z M24.5,0h72.7v64.9c0,9.1-7.4,16.5-16.5,16.5H16.5C7.4,81.4,0,74,0,64.9V25.6h8.5v39.3
	c0,4.4,3.6,8,8,8s8-3.6,8-8V25.6l0,0V0z M30.9,72.9h49.8c4.4,0,8-3.6,8-8V8.5H33v25.6l0,0v30.8C33,67.7,32.3,70.4,30.9,72.9z"/>
<image style="overflow:visible;" width="78" height="58" xlink:href="../../../../../Desktop/Screen Shot 2017-07-18 at 9.32.18 AM.png"  transform="matrix(0.2356 0 0 0.3351 64 34.625)">
</image>
</svg>
