<?xml version="1.0" encoding="utf-8"?>
<!-- Generator: Adobe Illustrator 21.1.0, SVG Export Plug-In . SVG Version: 6.00 Build 0)  -->
<svg version="1.1" id="Layer_1" xmlns="http://www.w3.org/2000/svg" xmlns:xlink="http://www.w3.org/1999/xlink" x="0px" y="0px"
	 viewBox="0 0 90 55.8" style="enable-background:new 0 0 90 55.8;" xml:space="preserve">
<style type="text/css">
	.st0{fill:#E61D2B;}
</style>
<path class="st0" d="M90,36.9c-2.2-7.1-4-14.8-4.9-19.3l0,0l0,0l0,0C83.3,8.2,64.5,0,45,0C22.4,0,8,5.1,5.5,13.9l0,0l0,0l0,0
	c-1.1,3.9-1.9,6.6-2.7,9c-1.2,3.7-2,6.4-2.8,11.2c0,0.2,0,0.4,0.1,0.5l1.2,1.9l0,0c0.1,0.1,0.1,0.2,0.2,0.2c0,0,0,0,0.1,0
	s0.1,0.1,0.2,0.1l0,0l0,0h0.1c0.1,0,0.1,0,0.2,0h0.1c0.1,0,0.1,0,0.2-0.1l0,0c0.5-0.4,1-0.6,1.5-0.6c1.7,0,3,2.7,3.3,6.9v0.1v0.1
	c0,0,0,0.1,0.1,0.1l0.1,0.1l0,0L9.1,45l0,0c0,0,0,0,0.1,0s0.1,0.1,0.2,0.1l0,0l0,0c0.1,0,0.2,0,0.3,0c0,0,0,0,0.1,0h0.1
	c4.1-1.5,6.8,0.1,8.7,5l0,0c0,0.1,0.1,0.1,0.1,0.2c0,0,0,0,0.1,0.1s0.1,0.1,0.2,0.2l2.5,1c0.1,0,0.2,0.1,0.3,0h0.1
	c0.1,0,0.1,0,0.2-0.1l0,0l0,0c1.8-1.2,3.4-1.8,4.8-1.8c2.3,0,4.3,1.5,6.1,4.5l0,0l0,0c0,0.1,0.1,0.1,0.1,0.1s0,0,0.1,0.1
	s0.2,0.1,0.3,0.1l2.8,0.3c0.1,0,0.2,0,0.3,0h0.1c0.1,0,0.1-0.1,0.2-0.1l0,0l0,0c1.7-1.9,3.3-2.8,5.1-2.8c2,0,4.3,1.2,7,3.6
	c0,0,0,0,0.1,0c0,0,0.1,0,0.1,0.1c0.1,0,0.1,0,0.2,0.1c0,0,0,0,0.1,0c0,0,0,0,0.1,0l0,0l2.4,0.1l0,0l0,0l0,0l0,0l0,0h0.1h0.1h0.1
	l0,0l0,0l0,0l0.2-0.1l0,0c0.2-0.1,0.4-0.4,0.5-0.6c1.7-2.4,3.6-3.6,5.9-3.6c1.7,0,3.6,0.7,5.9,2c0,0,0.1,0,0.2,0.1c0,0,0,0,0.1,0
	s0.2,0,0.3,0l2.2-0.3c0.1,0,0.2-0.1,0.3-0.1l0.1-0.1c0.1,0,0.1-0.1,0.1-0.1l0,0l0,0c2.8-4.8,6-6.2,9.6-4c0.1,0,0.1,0.1,0.2,0.1l0,0
	c0.1,0,0.2,0,0.2,0l0,0l0,0c0.1,0,0.1,0,0.2-0.1l0,0l0,0l1.9-1.4l0,0c0.1,0,0.1-0.1,0.1-0.2c0,0,0,0,0.1-0.1s0.1-0.2,0.1-0.3l0,0
	c0.7-5.7,2.6-8,6.4-7.6l0,0c0.1,0,0.1,0,0.2,0h0.1l0,0c0.1,0,0.1-0.1,0.2-0.1h0.1l0,0l0,0l1.9-1.6C90,37.5,90.1,37.2,90,36.9z
	 M45,1.5c20.3,0,37.1,8.6,38.6,16.4l0,0c0.4,2,0,3.7-1.2,5.4c-4,5.2-16.8,8.7-34.3,9.4c-19.1,0-34.8-4.4-39.9-11.3
	c-1.6-2.2-2.1-4.6-1.4-7.1l0,0l0,0C9.2,6.3,23.4,1.5,45,1.5z M3.9,34.6c-0.3,0-0.5,0-0.8,0.1c0.6-2,1.8-4.8,3.4-5.5
	c0.6-0.3,1.3-0.3,2,0.1C11,30.6,9.7,36.2,8.3,40C7.3,35.2,5,34.6,3.9,34.6z M10.8,43.4c0.8-2.5,2.6-6.4,4.8-7.3
	c0.9-0.4,1.8-0.3,2.7,0.3c2,1.2,1.6,6.8,0.8,11.2C17.1,44,14.4,42.6,10.8,43.4z M23,49.4c0.7-2.4,2.1-6.8,4.6-8.4
	c0.8-0.5,1.6-0.7,2.5-0.5c3.7,0.8,3.8,7.4,3.3,11.4C30.5,48.1,27.1,47.3,23,49.4z M37.6,52.4c0.2-2.4,0.9-6.6,3.2-8.8
	c1.1-1,2.4-1.5,4-1.4c0.5,0,1.1,0.4,1.6,1c1.8,2.2,2.8,7.2,2.8,10.2C44.6,49.8,41,49.5,37.6,52.4z M52.9,53
	C52.7,49.4,53,41.8,58,40.9c2.6-0.4,5.1,5.6,6.3,10.4c-1.9-0.9-3.6-1.4-5.2-1.4C56.8,49.9,54.7,51,52.9,53z M67.9,50.6
	c-0.6-2.8-1.5-8.4,0.3-11.2c0.5-0.8,1.3-1.3,2.2-1.5c3.4-0.6,5.7,5.4,6.7,9c-0.8-0.3-1.7-0.5-2.5-0.5C72.2,46.4,69.9,47.8,67.9,50.6
	z M80.1,43.4c-1.2-5.6-1.6-10.3-0.7-10.8c1-0.5,1.8-0.6,2.7-0.3c2.1,0.8,3.6,3.9,4.2,5.6C82.5,38,80.8,40.9,80.1,43.4z M87.7,37.4
	C87,35.6,85.3,32,82.6,31c-1.3-0.5-2.7-0.4-4,0.4c-2.7,1.5-0.3,11.5,0.7,15.3L78.7,47c-0.8-3.1-3.4-11.5-8.5-10.6
	c-1.4,0.2-2.5,1-3.2,2.2c-2.3,3.7-0.9,10.8-0.3,13.3L66.3,52H66c-0.7-3-3.4-13.3-8.2-12.5c-6.9,1.2-6.6,11.7-6.3,14.8h-0.8
	c0.1-3.1-0.9-9.1-3.2-11.9c-0.8-1-1.7-1.5-2.6-1.5c-2-0.1-3.7,0.5-5.1,1.8c-3.1,2.9-3.7,8.7-3.8,10.9h-0.4l-0.9-0.1
	c0.4-2.9,1.4-13-4.4-14.2c-1.3-0.3-2.5,0-3.6,0.7c-3.2,2.1-4.9,8-5.4,10.2l-1.1-0.4c0.6-2.8,2.5-12.3-1.1-14.4
	c-1.4-0.8-2.7-0.9-4-0.4c-3.1,1.3-5,6.2-5.8,8.5l-0.4-0.4c1.1-2.6,5-12.5,0.3-14.8c-1.1-0.6-2.3-0.6-3.3-0.1
	c-2.2,1.1-3.5,4.4-4.2,6.4L1.5,34c0.7-4.5,1.6-7.1,2.7-10.7c0.4-1.2,0.8-2.5,1.3-4c0.3,1,0.9,2,1.6,3c5.5,7.3,21.2,11.9,41.1,11.9
	l0,0c8.6-0.3,29.3-2,35.4-10c0.4-0.5,0.7-1.1,1-1.7c0.9,4.2,2.3,9.4,3.8,14.3L87.7,37.4z"/>
</svg>
