<svg xmlns="http://www.w3.org/2000/svg" xmlns:xlink="http://www.w3.org/1999/xlink" id="Layer_1" x="0" y="0" version="1.1" viewBox="0 0 28 90" xml:space="preserve" style="enable-background:new 0 0 28 90"><style type="text/css">.st0{fill:#e61d2b}</style><path d="M22.8,90H5.2C2,90,0,85.8,0,81.9c0-1.9,0.7-3.6,1.4-5.3c0.7-1.6,1.3-3.1,1.3-4.7c0-7.4-0.4-12.9-1.1-15.5	C0.4,52.3,0,47.7,0,39.1c0-6.1,1-8.2,2.6-11.6c0.8-1.6,1.8-3.7,2.9-6.8c3.2-8.9,2.7-19,2.7-19.1c0-0.4,0.1-0.8,0.4-1.1	C8.8,0.2,9.2,0,9.6,0h8.7c0.4,0,0.8,0.2,1.1,0.5s0.4,0.7,0.4,1.1c0,0.1-0.5,10.2,2.7,19.1c1.1,3.1,2.1,5.1,2.9,6.8	C27,30.9,28,33,28,39.1c0,8.7-0.4,13.2-1.6,17.3c-0.7,2.6-1.1,8.1-1.1,15.5c0,1.6,0.6,3.1,1.3,4.7c0.7,1.7,1.4,3.4,1.4,5.3	C28,85.8,26,90,22.8,90z M11.2,3c0,3.3-0.2,11.3-2.9,18.7c-1.2,3.2-2.2,5.3-3,7.1C3.8,32,3,33.6,3,39.1c0,8.4,0.4,12.7,1.5,16.5	c1,3.6,1.3,10.9,1.3,16.3c0,2.2-0.8,4.1-1.5,5.8C3.6,79.2,3,80.6,3,81.9c0,3,1.4,5.1,2.2,5.1h17.6c0.7,0,2.2-2.2,2.2-5.1	c0-1.3-0.6-2.7-1.2-4.2c-0.7-1.7-1.5-3.7-1.5-5.8c0-5.4,0.2-12.7,1.3-16.3c1.1-3.8,1.5-8.2,1.5-16.5c0-5.4-0.8-7.1-2.3-10.4	c-0.8-1.7-1.8-3.8-3-7.1c-2.8-7.4-3-15.3-3-18.6H11.2L11.2,3z" class="st0"/><image style="overflow:visible" width="78" height="58" transform="matrix(0.5 0 0 0.5 -103 15.5)" xlink:href="../../../../../Desktop/Screen Shot 2017-07-18 at 9.32.18 AM.png"/></svg>