<?xml version="1.0" encoding="utf-8"?>
<!-- Generator: Adobe Illustrator 21.1.0, SVG Export Plug-In . SVG Version: 6.00 Build 0)  -->
<svg version="1.1" id="Layer_1" xmlns="http://www.w3.org/2000/svg" xmlns:xlink="http://www.w3.org/1999/xlink" x="0px" y="0px"
	 viewBox="0 0 275 251.1" style="enable-background:new 0 0 275 251.1;" xml:space="preserve">
<style type="text/css">
	.st0{fill:#EFEFEF;}
</style>
<title>Stat 5</title>
<path class="st0" d="M274.9,8.9c0.5-4.4-2.7-8.3-7.1-8.8c-2.1-0.2-4.3,0.4-5.9,1.7l-34.8,28.3H193c-2.1,0-4.1,0.8-5.6,2.3l-37,36.3
	c-0.1,0.1-0.3,0.3-0.4,0.4L117.8,106L86.7,83.3c-1-0.7-2.2-1.2-3.4-1.4c-0.8-0.2-1.6-0.2-2.4,0h-0.3h-0.3c-1.4,0.3-2.7,1-3.8,1.9
	l-36.7,33.7L3.3,144c-1.6,1.2-2.7,2.9-3.1,4.9v0.1c0,0.1,0,0.3-0.1,0.4s0,0.3,0,0.5s0,0.2,0,0.3s0,0.2,0,0.2v100.7H16v-96.5l21-15.2
	v111.6h16V127.3L74,108v143.1h16V105.5l21,15.3v130.3h16V119.8l21-24v155.3h16V77.8l21-20.6v193.9h16v-205h21v205h16V42.5
	c0-0.2,0-0.4,0-0.6l21-17.1v226.3h16V10.3C275,9.8,275,9.3,274.9,8.9z"/>
</svg>
