<?xml version="1.0" encoding="utf-8"?>
<!-- Generator: Adobe Illustrator 21.1.0, SVG Export Plug-In . SVG Version: 6.00 Build 0)  -->
<svg version="1.1" id="Layer_1" xmlns="http://www.w3.org/2000/svg" xmlns:xlink="http://www.w3.org/1999/xlink" x="0px" y="0px"
	 viewBox="0 0 82 72" style="enable-background:new 0 0 82 72;" xml:space="preserve">
<style type="text/css">
	.st0{fill:#EFEFEF;}
</style>
<g>
	<path class="st0" d="M79,8H56V3c0-1.7-1.3-3-3-3H29c-1.7,0-3,1.3-3,3v5H3c-1.7,0-3,1.3-3,3v13h82V11C82,9.3,80.7,8,79,8z M52,8H30
		V4h22V8z M0,56h82v13c0,1.7-1.3,3-3,3H3c-1.7,0-3-1.3-3-3V56z M0,28h82v24H0V28z"/>
</g>
</svg>
