<svg xmlns="http://www.w3.org/2000/svg" xmlns:xlink="http://www.w3.org/1999/xlink" id="Layer_1" x="0" y="0" version="1.1" viewBox="0 0 97.9 73.7" xml:space="preserve" style="enable-background:new 0 0 97.9 73.7"><style type="text/css">.st0{fill:#efefef}</style><g><path d="M92.6,0H5.3C2.4,0,0,2.4,0,5.3v63.1c0,2.9,2.4,5.3,5.3,5.3h87.3c2.9,0,5.3-2.4,5.3-5.3V5.3 C97.9,2.4,95.5,0,92.6,0z M95.1,68.5c0,1.4-1.1,2.5-2.5,2.5H5.3c-1.4,0-2.5-1.1-2.5-2.5V13.8h92.4v54.7H95.1z M95.1,11H2.7V5.3 c0-1.4,1.1-2.5,2.5-2.5h87.3c1.4,0,2.5,1.1,2.5,2.5V11H95.1z" class="st0"/><path d="M66.5,5.5H31.2c-0.8,0-1.4,0.6-1.4,1.4s0.6,1.4,1.4,1.4h35.3c0.8,0,1.4-0.6,1.4-1.4S67.3,5.5,66.5,5.5z" class="st0"/><circle cx="6.7" cy="6.9" r="1.4" class="st0"/><circle cx="11.3" cy="6.9" r="1.4" class="st0"/><circle cx="16" cy="6.9" r="1.4" class="st0"/><path d="M23.3,42.4c5.9,0,10.6-4.8,10.6-10.6c0-5.9-4.8-10.6-10.6-10.6c-5.9,0-10.6,4.8-10.6,10.6 C12.6,37.6,17.4,42.4,23.3,42.4z M23.3,24.8c1.6,0,2.9,1.3,2.9,2.9c0,1.1-0.6,2.1-1.5,2.6c-0.4,0.2-0.9,0.3-1.3,0.3 c-0.5,0-0.9-0.1-1.3-0.3c-0.9-0.5-1.5-1.4-1.5-2.6C20.4,26.1,21.7,24.8,23.3,24.8z M18.3,33.7c0.1-1.5,1.2-2.8,2.6-3.3 c0.7,0.6,1.5,0.9,2.5,0.9s1.8-0.4,2.5-0.9c1.4,0.5,2.4,1.7,2.6,3.3l0.2,2.3c0.1,0.6-0.3,1.1-0.9,1.2l-3,0.6c-0.9,0.2-1.8,0.2-2.6,0 l-3-0.6c-0.5-0.1-0.9-0.6-0.9-1.2L18.3,33.7z" class="st0"/><rect width="72.5" height="4.5" x="12.6" y="47.1" class="st0"/><rect width="72.5" height="4.5" x="12.6" y="57.3" class="st0"/><rect width="45.4" height="4.5" x="39.7" y="26.8" class="st0"/><rect width="45.4" height="4.5" x="39.7" y="37" class="st0"/></g></svg>