<?xml version="1.0" encoding="utf-8"?>
<!-- Generator: Adobe Illustrator 21.1.0, SVG Export Plug-In . SVG Version: 6.00 Build 0)  -->
<svg version="1.1" id="Layer_1" xmlns="http://www.w3.org/2000/svg" xmlns:xlink="http://www.w3.org/1999/xlink" x="0px" y="0px"
	 viewBox="0 0 100 125" style="enable-background:new 0 0 100 125;" xml:space="preserve">
<style type="text/css">
	.st0{fill:#FFFFFF;}
</style>
<title>2Artboard 53</title>
<path class="st0" d="M82,32.5v4c0,1.1-0.9,2-2,2H20c-1.1,0-2-0.9-2-2v-4c0-1.1,0.9-2,2-2h60C81.1,30.5,82,31.4,82,32.5z M80,44.5H52
	c-1.1,0-2,0.9-2,2v4c0,1.1,0.9,2,2,2h28c1.1,0,2-0.9,2-2v-4C82,45.4,81.1,44.5,80,44.5z M80,58.5H52c-1.1,0-2,0.9-2,2v4
	c0,1.1,0.9,2,2,2h28c1.1,0,2-0.9,2-2v-4C82,59.4,81.1,58.5,80,58.5z M80,72.5H52c-1.1,0-2,0.9-2,2v4c0,1.1,0.9,2,2,2h28
	c1.1,0,2-0.9,2-2v-4C82,73.4,81.1,72.5,80,72.5z M80,86.5H20c-1.1,0-2,0.9-2,2v4c0,1.1,0.9,2,2,2h60c1.1,0,2-0.9,2-2v-4
	C82,87.4,81.1,86.5,80,86.5z M21,80.5h20c1.7,0,3-1.3,3-3v-4c0-5.5-3.4-10.3-8.6-12.2c4.3-2.4,5.9-7.9,3.4-12.3
	c-2.4-4.3-7.9-5.9-12.3-3.4s-5.9,7.9-3.4,12.3c0.8,1.4,2,2.6,3.4,3.4C21.4,63.2,18,68,18,73.5v4C18,79.2,19.3,80.5,21,80.5z"/>
</svg>
