<svg xmlns="http://www.w3.org/2000/svg" xmlns:xlink="http://www.w3.org/1999/xlink" id="Layer_1" x="0" y="0" version="1.1" viewBox="0 0 64 80" xml:space="preserve" style="enable-background:new 0 0 64 80"><g><path d="M56.2,17.1l-6.8-6.7C49,10.1,48.5,9.8,48,9.8H9.2c-1.2,0-2.1,0.9-2.1,2.1v56.1c0,1.2,0.9,2.1,2.1,2.1h45.6 c1.2,0,2.1-0.9,2.1-2.1V18.6C56.9,18,56.6,17.5,56.2,17.1z M11.3,66V14h34.6v4.6c0,1.2,0.9,2.1,2.1,2.1h4.7V66L11.3,66L11.3,66z"/><g><g><path d="M44.4,49.4h-25c-1,0-1.8-0.8-1.8-1.8s0.8-1.8,1.8-1.8h25c1,0,1.8,0.8,1.8,1.8S45.4,49.4,44.4,49.4z"/><path d="M44.5,56.1h-25c-1,0-1.8-0.8-1.8-1.8s0.8-1.8,1.8-1.8h25c1,0,1.8,0.8,1.8,1.8S45.5,56.1,44.5,56.1z"/><path d="M44.6,62.8h-25c-1,0-1.8-0.8-1.8-1.8s0.8-1.8,1.8-1.8h25c1,0,1.8,0.8,1.8,1.8S45.6,62.8,44.6,62.8z"/></g><g><circle cx="29" cy="21.4" r="4.8"/><path d="M22.5,41.8h12.7c1,0,1.9-0.8,1.9-1.8c0,0,0,0,0,0v-9c0-0.9-0.4-1.7-1.1-2.2c-0.6-0.4-2.7-0.7-4.1-0.7l-2.1,5.2l-0.4-3 l0.8-1.2c0.1-0.3,0.1-0.6-0.1-0.8C30,28.1,29.8,28,29.6,28h-1.5c-0.2,0-0.4,0.1-0.5,0.2c-0.2,0.2-0.3,0.6-0.1,0.8l0.8,1.2l-0.4,3 l-2.1-5.1c-1.2,0-3.3,0.2-3.8,0.6c-0.9,0.5-1.4,1.4-1.4,2.4V40c0,0,0,0,0,0C20.7,41,21.5,41.8,22.5,41.8z"/></g></g></g></svg>